<svg xmlns="http://www.w3.org/2000/svg" xmlns:xlink="http://www.w3.org/1999/xlink" width="1963pt" height="336pt" viewBox="0.00 0.00 1962.86 336.00">
<g id="graph0" class="graph" transform="scale(1 1) rotate(0) translate(4 332)">
<title>G</title>
<polygon fill="white" stroke="none" points="-4,4 -4,-332 1958.86,-332 1958.86,4 -4,4"/>
<g id="clust1" class="cluster">
<title>cluster_client_a</title>
<polygon fill="none" stroke="black" points="8,-148 8,-226 210.85,-226 210.85,-148 8,-148"/>
<text text-anchor="middle" x="109.43" y="-209.4" font-family="Times,serif" font-size="14.00">Client A's Computer</text>
</g>
<g id="clust2" class="cluster">
<title>cluster_google_cloud</title>
<polygon fill="none" stroke="black" points="348.36,-146 348.36,-320 1946.86,-320 1946.86,-146 348.36,-146"/>
<text text-anchor="middle" x="1147.61" y="-303.4" font-family="Times,serif" font-size="14.00">Google Cloud Infrastructure (The 'In-Between')</text>
</g>
<g id="clust3" class="cluster">
<title>cluster_backend</title>
<polygon fill="none" stroke="black" points="636.03,-154 636.03,-287 1664.6,-287 1664.6,-154 636.03,-154"/>
<text text-anchor="middle" x="1150.31" y="-270.4" font-family="Times,serif" font-size="14.00">Real-Time Backend</text>
</g>
<g id="clust4" class="cluster">
<title>cluster_client_b</title>
<polygon fill="none" stroke="black" points="786.68,-8 786.68,-138 989.54,-138 989.54,-8 786.68,-8"/>
<text text-anchor="middle" x="888.11" y="-121.4" font-family="Times,serif" font-size="14.00">Client B's Computer</text>
</g>
<!-- client_a -->
<g id="node1" class="node">
<title>client_a</title>
<path fill="none" stroke="black" d="M28,-157C28,-157 190.85,-157 190.85,-157 196.85,-157 202.85,-163 202.85,-169 202.85,-169 202.85,-181 202.85,-181 202.85,-187 196.85,-193 190.85,-193 190.85,-193 28,-193 28,-193 22,-193 16,-187 16,-181 16,-181 16,-169 16,-169 16,-163 22,-157 28,-157"/>
<text text-anchor="middle" x="49.67" y="-170.9" font-family="Arial" font-size="14.00">Browser</text>
<polyline fill="none" stroke="black" points="83.34,-157.2 83.34,-193"/>
<text text-anchor="middle" x="143.1" y="-170.9" font-family="Arial" font-size="14.00">Google Sheet UI</text>
</g>
<!-- lb -->
<g id="node2" class="node">
<title>lb</title>
<path fill="none" stroke="black" d="M468.52,-195.8C468.52,-195.8 368.36,-195.8 368.36,-195.8 362.36,-195.8 356.36,-189.8 356.36,-183.8 356.36,-183.8 356.36,-166.2 356.36,-166.2 356.36,-160.2 362.36,-154.2 368.36,-154.2 368.36,-154.2 468.52,-154.2 468.52,-154.2 474.52,-154.2 480.52,-160.2 480.52,-166.2 480.52,-166.2 480.52,-183.8 480.52,-183.8 480.52,-189.8 474.52,-195.8 468.52,-195.8"/>
<text text-anchor="middle" x="418.44" y="-179.2" font-family="Arial" font-size="14.00">Load Balancers /</text>
<text text-anchor="middle" x="418.44" y="-162.4" font-family="Arial" font-size="14.00">Frontend Servers</text>
</g>
<!-- client_a&#45;&gt;lb -->
<g id="edge1" class="edge">
<title>client_a-&gt;lb</title>
<path fill="none" stroke="black" d="M202.96,-175C248.41,-175 302.37,-175 344.79,-175"/>
<polygon fill="black" stroke="black" points="344.64,-178.5 354.64,-175 344.64,-171.5 344.64,-178.5"/>
<text text-anchor="middle" x="279.61" y="-196" font-family="Times,serif" font-size="14.00">1. User A changes</text>
<text text-anchor="middle" x="279.61" y="-179.2" font-family="Times,serif" font-size="14.00"> a cell (e.g., 'A1=10')</text>
</g>
<!-- ot_engine -->
<g id="node3" class="node">
<title>ot_engine</title>
<path fill="none" stroke="black" d="M1132.18,-219.73C1132.18,-221.53 1022.79,-223 888.11,-223 753.43,-223 644.03,-221.53 644.03,-219.73 644.03,-219.73 644.03,-190.27 644.03,-190.27 644.03,-188.47 753.43,-187 888.11,-187 1022.79,-187 1132.18,-188.47 1132.18,-190.27 1132.18,-190.27 1132.18,-219.73 1132.18,-219.73"/>
<path fill="none" stroke="black" d="M1132.18,-219.73C1132.18,-217.92 1022.79,-216.45 888.11,-216.45 753.43,-216.45 644.03,-217.92 644.03,-219.73"/>
<text text-anchor="middle" x="888.11" y="-200.8" font-family="Arial" font-size="14.00">{&lt;f0&gt;Operational Transformation Engine|&lt;f1&gt; Manages &amp; Merges Changes}</text>
</g>
<!-- lb&#45;&gt;ot_engine -->
<g id="edge2" class="edge">
<title>lb-&gt;ot_engine</title>
<path fill="none" stroke="black" d="M480.75,-174.49C486.75,-174.45 492.76,-174.42 498.52,-174.4 555.19,-174.19 569.46,-171.1 626.03,-174.4 664.39,-176.64 705.75,-180.72 744,-185.18"/>
<polygon fill="black" stroke="black" points="743.38,-188.63 753.72,-186.33 744.2,-181.68 743.38,-188.63"/>
<text text-anchor="middle" x="562.28" y="-195.4" font-family="Times,serif" font-size="14.00">2. Change sent as</text>
<text text-anchor="middle" x="562.28" y="-178.6" font-family="Times,serif" font-size="14.00"> an operation</text>
</g>
<!-- client_b -->
<g id="node6" class="node">
<title>client_b</title>
<path fill="none" stroke="black" d="M806.68,-17C806.68,-17 969.54,-17 969.54,-17 975.54,-17 981.54,-23 981.54,-29 981.54,-29 981.54,-41 981.54,-41 981.54,-47 975.54,-53 969.54,-53 969.54,-53 806.68,-53 806.68,-53 800.68,-53 794.68,-47 794.68,-41 794.68,-41 794.68,-29 794.68,-29 794.68,-23 800.68,-17 806.68,-17"/>
<text text-anchor="middle" x="828.35" y="-30.9" font-family="Arial" font-size="14.00">Browser</text>
<polyline fill="none" stroke="black" points="862.03,-17.2 862.03,-53"/>
<text text-anchor="middle" x="921.78" y="-30.9" font-family="Arial" font-size="14.00">Google Sheet UI</text>
</g>
<!-- lb&#45;&gt;client_b -->
<g id="edge8" class="edge">
<title>lb-&gt;client_b</title>
<path fill="none" stroke="black" d="M457.73,-153.79C470.45,-147.29 484.86,-140.52 498.52,-135.4 592.62,-100.14 704.02,-72.74 783.37,-55.54"/>
<polygon fill="black" stroke="black" points="783.82,-59.02 792.86,-53.5 782.35,-52.18 783.82,-59.02"/>
<text text-anchor="middle" x="562.28" y="-156.4" font-family="Times,serif" font-size="14.00">8. Client B receives</text>
<text text-anchor="middle" x="562.28" y="-139.6" font-family="Times,serif" font-size="14.00"> transformed operation</text>
</g>
<!-- ot_engine&#45;&gt;lb -->
<g id="edge7" class="edge">
<title>ot_engine-&gt;lb</title>
<path fill="none" stroke="black" d="M666.49,-222.33C611.22,-222.41 552.35,-218.78 498.52,-208 489.8,-206.25 480.85,-203.52 472.24,-200.37"/>
<polygon fill="black" stroke="black" points="473.56,-197.12 462.97,-196.73 471,-203.64 473.56,-197.12"/>
<text text-anchor="middle" x="562.28" y="-242.67" font-family="Times,serif" font-size="14.00">7. Broadcast to</text>
<text text-anchor="middle" x="562.28" y="-225.87" font-family="Times,serif" font-size="14.00"> all clients</text>
</g>
<!-- app_server -->
<g id="node4" class="node">
<title>app_server</title>
<polygon fill="none" stroke="black" points="1656.6,-228.8 1309.31,-228.8 1309.31,-224.8 1305.31,-224.8 1305.31,-220.8 1309.31,-220.8 1309.31,-195.2 1305.31,-195.2 1305.31,-191.2 1309.31,-191.2 1309.31,-187.2 1656.6,-187.2 1656.6,-228.8"/>
<polyline fill="none" stroke="black" points="1309.31,-224.8 1313.31,-224.8 1313.31,-220.8 1309.31,-220.8"/>
<polyline fill="none" stroke="black" points="1309.31,-195.2 1313.31,-195.2 1313.31,-191.2 1309.31,-191.2"/>
<text text-anchor="middle" x="1482.95" y="-212.2" font-family="Arial" font-size="14.00">{&lt;f0&gt;Application Server|&lt;f1&gt; Handles Business Logic</text>
<text text-anchor="middle" x="1482.95" y="-195.4" font-family="Arial" font-size="14.00">(e.g., Formula Calculation)}</text>
</g>
<!-- ot_engine&#45;&gt;app_server -->
<g id="edge3" class="edge">
<title>ot_engine-&gt;app_server</title>
<path fill="none" stroke="black" d="M1042.42,-186.79C1117.47,-180.23 1209.14,-175.7 1291.31,-181.4 1305.52,-182.39 1320.29,-183.78 1335.03,-185.42"/>
<polygon fill="black" stroke="black" points="1334.45,-188.88 1344.78,-186.55 1335.25,-181.93 1334.45,-188.88"/>
<text text-anchor="middle" x="1220.75" y="-202.4" font-family="Times,serif" font-size="14.00">3. Operation transformed</text>
<text text-anchor="middle" x="1220.75" y="-185.6" font-family="Times,serif" font-size="14.00"> &amp; validated</text>
</g>
<!-- app_server&#45;&gt;ot_engine -->
<g id="edge6" class="edge">
<title>app_server-&gt;ot_engine</title>
<path fill="none" stroke="black" d="M1308.95,-214.63C1302.99,-214.77 1297.1,-214.89 1291.31,-215 1228.6,-216.15 1212.89,-216.2 1150.18,-215 1148.11,-214.96 1146.02,-214.92 1143.92,-214.88"/>
<polygon fill="black" stroke="black" points="1144.23,-211.38 1134.16,-214.66 1144.08,-218.38 1144.23,-211.38"/>
<text text-anchor="middle" x="1220.75" y="-220.08" font-family="Times,serif" font-size="14.00">6. Confirmed operation</text>
</g>
<!-- db -->
<g id="node5" class="node">
<title>db</title>
<path fill="none" stroke="black" d="M1938.86,-231.4C1938.86,-234.27 1909.12,-236.6 1872.5,-236.6 1835.87,-236.6 1806.13,-234.27 1806.13,-231.4 1806.13,-231.4 1806.13,-184.6 1806.13,-184.6 1806.13,-181.73 1835.87,-179.4 1872.5,-179.4 1909.12,-179.4 1938.86,-181.73 1938.86,-184.6 1938.86,-184.6 1938.86,-231.4 1938.86,-231.4"/>
<path fill="none" stroke="black" d="M1938.86,-231.4C1938.86,-228.53 1909.12,-226.2 1872.5,-226.2 1835.87,-226.2 1806.13,-228.53 1806.13,-231.4"/>
<text text-anchor="middle" x="1872.5" y="-212.2" font-family="Arial" font-size="14.00">Google Database</text>
<text text-anchor="middle" x="1872.5" y="-195.4" font-family="Arial" font-size="14.00">(Spanner/Bigtable)</text>
</g>
<!-- app_server&#45;&gt;db -->
<g id="edge4" class="edge">
<title>app_server-&gt;db</title>
<path fill="none" stroke="black" d="M1573.59,-186.76C1634.42,-175.41 1716.49,-166.06 1788.13,-178.4 1790.43,-178.8 1792.76,-179.25 1795.1,-179.76"/>
<polygon fill="black" stroke="black" points="1794.05,-183.1 1804.6,-182.08 1795.72,-176.3 1794.05,-183.1"/>
<text text-anchor="middle" x="1731.36" y="-199.4" font-family="Times,serif" font-size="14.00">4. State persisted</text>
<text text-anchor="middle" x="1731.36" y="-182.6" font-family="Times,serif" font-size="14.00"> to database</text>
</g>
<!-- db&#45;&gt;app_server -->
<g id="edge5" class="edge">
<title>db-&gt;app_server</title>
<path fill="none" stroke="black" d="M1805.97,-211.44C1799.94,-211.67 1793.92,-211.86 1788.13,-212 1749.36,-212.93 1707.81,-213 1668.26,-212.62"/>
<polygon fill="black" stroke="black" points="1668.44,-209.12 1658.4,-212.52 1668.36,-216.12 1668.44,-209.12"/>
<text text-anchor="middle" x="1731.36" y="-217.03" font-family="Times,serif" font-size="14.00">5. Acknowledgment</text>
</g>
<!-- client_b&#45;&gt;client_b -->
<g id="edge9" class="edge">
<title>client_b-&gt;client_b:f1</title>
<path fill="none" stroke="black" d="M830.29,-53.4C822.87,-62.92 846.58,-71.5 904.95,-71.5 940.97,-71.5 963.79,-68.25 974.24,-63.52"/>
<polygon fill="black" stroke="black" points="977.27,-65.27 978.89,-54.8 971.09,-61.98 977.27,-65.27"/>
<text text-anchor="middle" x="888.11" y="-92.5" font-family="Times,serif" font-size="14.00">9. UI updates</text>
<text text-anchor="middle" x="888.11" y="-75.7" font-family="Times,serif" font-size="14.00"> (Cell A1 now '10')</text>
</g>
</g>
</svg>