<svg xmlns="http://www.w3.org/2000/svg" xmlns:xlink="http://www.w3.org/1999/xlink" width="1318pt" height="890pt" viewBox="0.00 0.00 1318.00 890.20">
<g id="graph0" class="graph" transform="scale(1 1) rotate(0) translate(4 886.2)">
<title>SystemArchitecture</title>
<polygon fill="white" stroke="none" points="-4,4 -4,-886.2 1314,-886.2 1314,4 -4,4"/>
<g id="clust1" class="cluster">
<title>cluster_vehicle</title>
<polygon fill="none" stroke="black" points="8,-621 8,-874.2 438,-874.2 438,-621 8,-621"/>
<text text-anchor="middle" x="223" y="-857.6" font-family="Times,serif" font-size="14.00">Vehicle</text>
</g>
<g id="clust2" class="cluster">
<title>cluster_aws</title>
<polygon fill="none" stroke="black" points="31,-8 31,-591 1150,-591 1150,-8 31,-8"/>
<text text-anchor="middle" x="590.5" y="-574.4" font-family="Times,serif" font-size="14.00">AWS Cloud</text>
</g>
<g id="clust3" class="cluster">
<title>cluster_ingestion</title>
<polygon fill="none" stroke="black" points="102,-249.2 102,-558.2 407,-558.2 407,-249.2 102,-249.2"/>
<text text-anchor="middle" x="254.5" y="-541.6" font-family="Times,serif" font-size="14.00">Ingestion Flow (HLS/DASH for DVR)</text>
</g>
<g id="clust4" class="cluster">
<title>cluster_application</title>
<polygon fill="none" stroke="black" points="39,-16 39,-207.2 615,-207.2 615,-16 39,-16"/>
<text text-anchor="middle" x="327" y="-190.6" font-family="Times,serif" font-size="14.00">Application &amp; Processing</text>
</g>
<g id="clust5" class="cluster">
<title>cluster_consumption</title>
<polygon fill="none" stroke="black" points="712,-100 712,-353.6 1142,-353.6 1142,-100 712,-100"/>
<text text-anchor="middle" x="927" y="-337" font-family="Times,serif" font-size="14.00">Consumption Flow</text>
</g>
<g id="clust6" class="cluster">
<title>cluster_admin</title>
<polygon fill="none" stroke="black" points="1180,-252 1180,-353.6 1302,-353.6 1302,-252 1180,-252"/>
<text text-anchor="middle" x="1241" y="-337" font-family="Times,serif" font-size="14.00">Admin</text>
</g>
<!-- A -->
<g id="node1" class="node">
<title>A</title>
<path fill="none" stroke="black" d="M264.67,-816.6C264.67,-816.6 181.33,-816.6 181.33,-816.6 175.33,-816.6 169.33,-810.6 169.33,-804.6 169.33,-804.6 169.33,-792.6 169.33,-792.6 169.33,-786.6 175.33,-780.6 181.33,-780.6 181.33,-780.6 264.67,-780.6 264.67,-780.6 270.67,-780.6 276.67,-786.6 276.67,-792.6 276.67,-792.6 276.67,-804.6 276.67,-804.6 276.67,-810.6 270.67,-816.6 264.67,-816.6"/>
<text text-anchor="middle" x="223" y="-794.4" font-family="Times,serif" font-size="14.00">Camera Capture</text>
</g>
<!-- B -->
<g id="node2" class="node">
<title>B</title>
<path fill="none" stroke="black" d="M211.05,-742.56C211.05,-742.56 28.17,-726.64 28.17,-726.64 22.19,-726.12 22.19,-725.08 28.17,-724.56 28.17,-724.56 211.05,-708.64 211.05,-708.64 217.02,-708.12 228.98,-708.12 234.95,-708.64 234.95,-708.64 417.83,-724.56 417.83,-724.56 423.81,-725.08 423.81,-726.12 417.83,-726.64 417.83,-726.64 234.95,-742.56 234.95,-742.56 228.98,-743.08 217.02,-743.08 211.05,-742.56"/>
<text text-anchor="middle" x="223" y="-721.4" font-family="Times,serif" font-size="14.00">Video Segmentation (HLS/DASH)</text>
</g>
<!-- A&#45;&gt;B -->
<g id="edge1" class="edge">
<title>A-&gt;B</title>
<path fill="none" stroke="black" d="M223,-780.41C223,-772.83 223,-763.7 223,-755.14"/>
<polygon fill="black" stroke="black" points="226.5,-755.14 223,-745.14 219.5,-755.14 226.5,-755.14"/>
</g>
<!-- SFU -->
<g id="node13" class="node">
<title>SFU</title>
<polygon fill="lightblue" stroke="black" points="479.16,-149.6 348.84,-149.6 348.84,-108 479.16,-108 479.16,-149.6"/>
<text text-anchor="middle" x="414" y="-133" font-family="Times,serif" font-size="14.00">Media Server (SFU)</text>
<text text-anchor="middle" x="414" y="-116.2" font-family="Times,serif" font-size="14.00">(e.g., Janus)</text>
</g>
<!-- A&#45;&gt;SFU -->
<g id="edge17" class="edge">
<title>A-&gt;SFU</title>
<path fill="none" stroke="blue" stroke-dasharray="5,2" d="M276.96,-791.72C444.14,-770.22 953.77,-679.17 1146,-353.6 1177.27,-300.63 1189.23,-258.96 1146,-215.2 1134.02,-203.07 586.65,-212.94 499.34,-208.42"/>
<polygon fill="blue" stroke="blue" points="499.82,-204.95 489.5,-207.36 499.07,-211.91 499.82,-204.95"/>
<text text-anchor="middle" x="1102.65" y="-479.6" font-family="Times,serif" font-size="10.00" fill="blue">Publishes live stream</text>
</g>
<!-- C -->
<g id="node3" class="node">
<title>C</title>
<path fill="none" stroke="black" d="M282.4,-670.6C282.4,-670.6 163.6,-670.6 163.6,-670.6 157.6,-670.6 151.6,-664.6 151.6,-658.6 151.6,-658.6 151.6,-641 151.6,-641 151.6,-635 157.6,-629 163.6,-629 163.6,-629 282.4,-629 282.4,-629 288.4,-629 294.4,-635 294.4,-641 294.4,-641 294.4,-658.6 294.4,-658.6 294.4,-664.6 288.4,-670.6 282.4,-670.6"/>
<text text-anchor="middle" x="223" y="-654" font-family="Times,serif" font-size="14.00">HTTPS POST Chunks</text>
<text text-anchor="middle" x="223" y="-637.2" font-family="Times,serif" font-size="14.00">(for DVR)</text>
</g>
<!-- B&#45;&gt;C -->
<g id="edge2" class="edge">
<title>B-&gt;C</title>
<path fill="none" stroke="black" d="M223,-707.11C223,-699.75 223,-690.95 223,-682.52"/>
<polygon fill="black" stroke="black" points="226.5,-682.55 223,-672.55 219.5,-682.55 226.5,-682.55"/>
</g>
<!-- D -->
<g id="node4" class="node">
<title>D</title>
<path fill="none" stroke="black" d="M282.37,-500.6C282.37,-500.6 163.63,-500.6 163.63,-500.6 157.63,-500.6 151.63,-494.6 151.63,-488.6 151.63,-488.6 151.63,-476.6 151.63,-476.6 151.63,-470.6 157.63,-464.6 163.63,-464.6 163.63,-464.6 282.37,-464.6 282.37,-464.6 288.37,-464.6 294.37,-470.6 294.37,-476.6 294.37,-476.6 294.37,-488.6 294.37,-488.6 294.37,-494.6 288.37,-500.6 282.37,-500.6"/>
<text text-anchor="middle" x="223" y="-478.4" font-family="Times,serif" font-size="14.00">Amazon API Gateway</text>
</g>
<!-- C&#45;&gt;D -->
<g id="edge16" class="edge">
<title>C-&gt;D</title>
<path fill="none" stroke="black" d="M223,-628.54C223,-599.38 223,-545.44 223,-512.22"/>
<polygon fill="black" stroke="black" points="226.5,-512.52 223,-502.52 219.5,-512.52 226.5,-512.52"/>
<text text-anchor="middle" x="256.2" y="-602" font-family="Times,serif" font-size="10.00">Uploads Chunks</text>
</g>
<!-- E -->
<g id="node5" class="node">
<title>E</title>
<path fill="none" stroke="black" d="M269.74,-427.6C269.74,-427.6 176.26,-427.6 176.26,-427.6 170.26,-427.6 164.26,-421.6 164.26,-415.6 164.26,-415.6 164.26,-403.6 164.26,-403.6 164.26,-397.6 170.26,-391.6 176.26,-391.6 176.26,-391.6 269.74,-391.6 269.74,-391.6 275.74,-391.6 281.74,-397.6 281.74,-403.6 281.74,-403.6 281.74,-415.6 281.74,-415.6 281.74,-421.6 275.74,-427.6 269.74,-427.6"/>
<text text-anchor="middle" x="223" y="-405.4" font-family="Times,serif" font-size="14.00">Ingestion Lambda</text>
</g>
<!-- D&#45;&gt;E -->
<g id="edge3" class="edge">
<title>D-&gt;E</title>
<path fill="none" stroke="black" d="M223,-464.41C223,-456.83 223,-447.7 223,-439.14"/>
<polygon fill="black" stroke="black" points="226.5,-439.14 223,-429.14 219.5,-439.14 226.5,-439.14"/>
</g>
<!-- F -->
<g id="node6" class="node">
<title>F</title>
<path fill="none" stroke="black" d="M387.4,-298.8C387.4,-298.8 284.6,-298.8 284.6,-298.8 278.6,-298.8 272.6,-292.8 272.6,-286.8 272.6,-286.8 272.6,-269.2 272.6,-269.2 272.6,-263.2 278.6,-257.2 284.6,-257.2 284.6,-257.2 387.4,-257.2 387.4,-257.2 393.4,-257.2 399.4,-263.2 399.4,-269.2 399.4,-269.2 399.4,-286.8 399.4,-286.8 399.4,-292.8 393.4,-298.8 387.4,-298.8"/>
<text text-anchor="middle" x="336" y="-282.2" font-family="Times,serif" font-size="14.00">Amazon S3 Bucket</text>
<text text-anchor="middle" x="336" y="-265.4" font-family="Times,serif" font-size="14.00">(Video Recordings)</text>
</g>
<!-- E&#45;&gt;F -->
<g id="edge4" class="edge">
<title>E-&gt;F</title>
<path fill="none" stroke="black" d="M263.45,-391.23C271.9,-386.36 280.27,-380.48 287,-373.6 304.67,-355.52 317.44,-329.78 325.51,-309.71"/>
<polygon fill="black" stroke="black" points="328.67,-311.24 328.97,-300.65 322.13,-308.74 328.67,-311.24"/>
<text text-anchor="middle" x="336.97" y="-364.6" font-family="Times,serif" font-size="10.00">Stores Video Chunk</text>
</g>
<!-- G -->
<g id="node7" class="node">
<title>G</title>
<path fill="none" stroke="black" d="M242.15,-298.8C242.15,-298.8 121.85,-298.8 121.85,-298.8 115.85,-298.8 109.85,-292.8 109.85,-286.8 109.85,-286.8 109.85,-269.2 109.85,-269.2 109.85,-263.2 115.85,-257.2 121.85,-257.2 121.85,-257.2 242.15,-257.2 242.15,-257.2 248.15,-257.2 254.15,-263.2 254.15,-269.2 254.15,-269.2 254.15,-286.8 254.15,-286.8 254.15,-292.8 248.15,-298.8 242.15,-298.8"/>
<text text-anchor="middle" x="182" y="-282.2" font-family="Times,serif" font-size="14.00">Amazon MSK (Kafka)</text>
<text text-anchor="middle" x="182" y="-265.4" font-family="Times,serif" font-size="14.00">Topic: video_chunks</text>
</g>
<!-- E&#45;&gt;G -->
<g id="edge5" class="edge">
<title>E-&gt;G</title>
<path fill="none" stroke="black" d="M215.64,-391.29C213.37,-385.69 210.95,-379.42 208.96,-373.6 201.81,-352.69 195,-328.75 190.01,-310.18"/>
<polygon fill="black" stroke="black" points="193.41,-309.35 187.47,-300.58 186.64,-311.14 193.41,-309.35"/>
<text text-anchor="middle" x="247.98" y="-364.6" font-family="Times,serif" font-size="10.00">Publishes Metadata</text>
</g>
<!-- H -->
<g id="node8" class="node">
<title>H</title>
<path fill="none" stroke="black" d="M210.91,-149.6C210.91,-149.6 59.09,-149.6 59.09,-149.6 53.09,-149.6 47.09,-143.6 47.09,-137.6 47.09,-137.6 47.09,-120 47.09,-120 47.09,-114 53.09,-108 59.09,-108 59.09,-108 210.91,-108 210.91,-108 216.91,-108 222.91,-114 222.91,-120 222.91,-120 222.91,-137.6 222.91,-137.6 222.91,-143.6 216.91,-149.6 210.91,-149.6"/>
<text text-anchor="middle" x="135" y="-133" font-family="Times,serif" font-size="14.00">Streaming Service</text>
<text text-anchor="middle" x="135" y="-116.2" font-family="Times,serif" font-size="14.00">(Manages Playlists/Streams)</text>
</g>
<!-- G&#45;&gt;H -->
<g id="edge8" class="edge">
<title>G-&gt;H</title>
<path fill="none" stroke="black" d="M109.49,-270.87C89.53,-265.45 69.99,-255.88 57.63,-239.2 37.07,-211.46 66.36,-179.11 94.61,-156.82"/>
<polygon fill="black" stroke="black" points="96.61,-159.69 102.47,-150.87 92.39,-154.11 96.61,-159.69"/>
<text text-anchor="middle" x="98.31" y="-224.2" font-family="Times,serif" font-size="10.00">Consumes Metadata</text>
</g>
<!-- I -->
<g id="node9" class="node">
<title>I</title>
<path fill="none" stroke="black" d="M179.79,-60C179.79,-60 76.21,-60 76.21,-60 70.21,-60 64.21,-54 64.21,-48 64.21,-48 64.21,-36 64.21,-36 64.21,-30 70.21,-24 76.21,-24 76.21,-24 179.79,-24 179.79,-24 185.79,-24 191.79,-30 191.79,-36 191.79,-36 191.79,-48 191.79,-48 191.79,-54 185.79,-60 179.79,-60"/>
<text text-anchor="middle" x="128" y="-37.8" font-family="Times,serif" font-size="14.00">ElastiCache (Redis)</text>
</g>
<!-- H&#45;&gt;I -->
<g id="edge6" class="edge">
<title>H-&gt;I</title>
<path fill="none" stroke="black" d="M133.34,-107.7C132.45,-96.9 131.34,-83.41 130.36,-71.54"/>
<polygon fill="black" stroke="black" points="133.87,-71.56 129.56,-61.88 126.89,-72.13 133.87,-71.56"/>
<text text-anchor="middle" x="166.01" y="-81" font-family="Times,serif" font-size="10.00">Manages Playlist</text>
</g>
<!-- L -->
<g id="node14" class="node">
<title>L</title>
<ellipse fill="none" stroke="black" cx="778" cy="-278" rx="57.98" ry="18"/>
<text text-anchor="middle" x="778" y="-273.8" font-family="Times,serif" font-size="14.00">Mobile App</text>
</g>
<!-- H&#45;&gt;L -->
<g id="edge13" class="edge">
<title>H-&gt;L</title>
<path fill="none" stroke="black" d="M135.83,-149.88C138.09,-175.34 146.13,-218.4 174.45,-239.2 185.05,-246.99 397.87,-248.43 411,-249.2 516.05,-255.4 637.83,-265.13 711.33,-271.28"/>
<polygon fill="black" stroke="black" points="710.94,-274.76 721.19,-272.11 711.52,-267.78 710.94,-274.76"/>
<text text-anchor="middle" x="224.72" y="-230.2" font-family="Times,serif" font-size="10.00">3a. Returns Playlist URL</text>
<text text-anchor="middle" x="224.72" y="-218.2" font-family="Times,serif" font-size="10.00">(for DVR)</text>
</g>
<!-- J -->
<g id="node10" class="node">
<title>J</title>
<path fill="none" stroke="black" d="M318.74,-146.8C318.74,-146.8 253.26,-146.8 253.26,-146.8 247.26,-146.8 241.26,-140.8 241.26,-134.8 241.26,-134.8 241.26,-122.8 241.26,-122.8 241.26,-116.8 247.26,-110.8 253.26,-110.8 253.26,-110.8 318.74,-110.8 318.74,-110.8 324.74,-110.8 330.74,-116.8 330.74,-122.8 330.74,-122.8 330.74,-134.8 330.74,-134.8 330.74,-140.8 324.74,-146.8 318.74,-146.8"/>
<text text-anchor="middle" x="286" y="-124.6" font-family="Times,serif" font-size="14.00">Auth Service</text>
</g>
<!-- K -->
<g id="node11" class="node">
<title>K</title>
<path fill="none" stroke="black" d="M370.36,-60C370.36,-60 221.64,-60 221.64,-60 215.64,-60 209.64,-54 209.64,-48 209.64,-48 209.64,-36 209.64,-36 209.64,-30 215.64,-24 221.64,-24 221.64,-24 370.36,-24 370.36,-24 376.36,-24 382.36,-30 382.36,-36 382.36,-36 382.36,-48 382.36,-48 382.36,-54 376.36,-60 370.36,-60"/>
<text text-anchor="middle" x="296" y="-37.8" font-family="Times,serif" font-size="14.00">Amazon DynamoDB / RDS</text>
</g>
<!-- J&#45;&gt;K -->
<g id="edge7" class="edge">
<title>J-&gt;K</title>
<path fill="none" stroke="black" d="M288.02,-110.64C289.34,-99.45 291.1,-84.57 292.63,-71.62"/>
<polygon fill="black" stroke="black" points="296.07,-72.27 293.77,-61.93 289.12,-71.45 296.07,-72.27"/>
<text text-anchor="middle" x="322.28" y="-81" font-family="Times,serif" font-size="10.00">Manages Users</text>
</g>
<!-- Signaling -->
<g id="node12" class="node">
<title>Signaling</title>
<polygon fill="lightblue" stroke="black" points="606.85,-149.6 497.15,-149.6 497.15,-108 606.85,-108 606.85,-149.6"/>
<text text-anchor="middle" x="552" y="-133" font-family="Times,serif" font-size="14.00">Signaling Server</text>
<text text-anchor="middle" x="552" y="-116.2" font-family="Times,serif" font-size="14.00">(WebSockets)</text>
</g>
<!-- Signaling&#45;&gt;L -->
<g id="edge19" class="edge">
<title>Signaling-&gt;L</title>
<path fill="none" stroke="blue" stroke-dasharray="5,2" d="M538.64,-150.07C524.61,-174.14 507.35,-214.17 528.86,-239.2 551.63,-265.68 642.91,-273.84 708.38,-276.22"/>
<polygon fill="blue" stroke="blue" points="708.26,-279.72 718.37,-276.54 708.48,-272.72 708.26,-279.72"/>
<text text-anchor="middle" x="573.43" y="-224.2" font-family="Times,serif" font-size="10.00" fill="blue">Negotiates connection</text>
</g>
<!-- L&#45;&gt;Signaling -->
<g id="edge18" class="edge">
<title>L-&gt;Signaling</title>
<path fill="none" stroke="blue" stroke-dasharray="5,2" d="M720.41,-274.99C625.14,-271.07 443.22,-260.82 423.79,-239.2 383.1,-193.94 444.42,-215.66 477.38,-210.49"/>
<polygon fill="blue" stroke="blue" points="478.04,-213.95 486.55,-207.65 475.97,-207.27 478.04,-213.95"/>
<text text-anchor="middle" x="464.89" y="-224.2" font-family="Times,serif" font-size="10.00" fill="blue">3b. Joins live stream</text>
</g>
<!-- L&#45;&gt;SFU -->
<g id="edge20" class="edge">
<title>L-&gt;SFU</title>
<path fill="none" stroke="blue" stroke-dasharray="5,2" d="M722.23,-272.8C594.5,-263.15 291.65,-240.18 290.74,-239.2 248.72,-193.8 328.84,-213.07 340,-207.2 361.65,-195.8 380.6,-175.67 393.91,-158.79"/>
<polygon fill="blue" stroke="blue" points="396.53,-161.11 399.78,-151.03 390.95,-156.89 396.53,-161.11"/>
<text text-anchor="middle" x="348.37" y="-224.2" font-family="Times,serif" font-size="10.00" fill="blue">4b. Subscribes to live stream</text>
</g>
<!-- M -->
<g id="node15" class="node">
<title>M</title>
<path fill="none" stroke="black" d="M1012.02,-146.8C1012.02,-146.8 923.98,-146.8 923.98,-146.8 917.98,-146.8 911.98,-140.8 911.98,-134.8 911.98,-134.8 911.98,-122.8 911.98,-122.8 911.98,-116.8 917.98,-110.8 923.98,-110.8 923.98,-110.8 1012.02,-110.8 1012.02,-110.8 1018.02,-110.8 1024.02,-116.8 1024.02,-122.8 1024.02,-122.8 1024.02,-134.8 1024.02,-134.8 1024.02,-140.8 1018.02,-146.8 1012.02,-146.8"/>
<text text-anchor="middle" x="968" y="-124.6" font-family="Times,serif" font-size="14.00">Amazon Cognito</text>
</g>
<!-- L&#45;&gt;M -->
<g id="edge9" class="edge">
<title>L-&gt;M</title>
<path fill="none" stroke="black" d="M810.05,-262.65C822.73,-256.3 837.08,-248.22 849,-239.2 860.79,-230.28 859.26,-222.67 872.02,-215.2 884.29,-208.02 890.97,-214.78 903,-207.2 923.23,-194.45 940.34,-173.34 951.92,-156.39"/>
<polygon fill="black" stroke="black" points="954.7,-158.53 957.25,-148.25 948.84,-154.7 954.7,-158.53"/>
<text text-anchor="middle" x="904.51" y="-224.2" font-family="Times,serif" font-size="10.00">1. Authenticates</text>
</g>
<!-- N -->
<g id="node16" class="node">
<title>N</title>
<path fill="none" stroke="black" d="M1121.91,-146.8C1121.91,-146.8 1054.09,-146.8 1054.09,-146.8 1048.09,-146.8 1042.09,-140.8 1042.09,-134.8 1042.09,-134.8 1042.09,-122.8 1042.09,-122.8 1042.09,-116.8 1048.09,-110.8 1054.09,-110.8 1054.09,-110.8 1121.91,-110.8 1121.91,-110.8 1127.91,-110.8 1133.91,-116.8 1133.91,-122.8 1133.91,-122.8 1133.91,-134.8 1133.91,-134.8 1133.91,-140.8 1127.91,-146.8 1121.91,-146.8"/>
<text text-anchor="middle" x="1088" y="-124.6" font-family="Times,serif" font-size="14.00">API Gateway</text>
</g>
<!-- L&#45;&gt;N -->
<g id="edge11" class="edge">
<title>L-&gt;N</title>
<path fill="none" stroke="black" d="M833.99,-272.81C893.01,-267.54 981.33,-256.95 1010,-239.2 1041.23,-219.85 1063.56,-182.9 1076.12,-157.33"/>
<polygon fill="black" stroke="black" points="1079.17,-159.06 1080.25,-148.53 1072.83,-156.09 1079.17,-159.06"/>
<text text-anchor="middle" x="1087.32" y="-224.2" font-family="Times,serif" font-size="10.00">2. Requests Stream URL</text>
</g>
<!-- O -->
<g id="node17" class="node">
<title>O</title>
<path fill="none" stroke="black" d="M881.94,-149.6C881.94,-149.6 732.06,-149.6 732.06,-149.6 726.06,-149.6 720.06,-143.6 720.06,-137.6 720.06,-137.6 720.06,-120 720.06,-120 720.06,-114 726.06,-108 732.06,-108 732.06,-108 881.94,-108 881.94,-108 887.94,-108 893.94,-114 893.94,-120 893.94,-120 893.94,-137.6 893.94,-137.6 893.94,-143.6 887.94,-149.6 881.94,-149.6"/>
<text text-anchor="middle" x="807" y="-133" font-family="Times,serif" font-size="14.00">Amazon CloudFront (CDN)</text>
<text text-anchor="middle" x="807" y="-116.2" font-family="Times,serif" font-size="14.00">(Serves DVR Chunks)</text>
</g>
<!-- L&#45;&gt;O -->
<g id="edge14" class="edge">
<title>L-&gt;O</title>
<path fill="none" stroke="black" d="M760.54,-260.5C755.25,-254.37 750.11,-247 747.34,-239.2 743.78,-229.15 744.14,-225.37 747.34,-215.2 753.92,-194.29 767.64,-174.03 780.27,-158.5"/>
<polygon fill="black" stroke="black" points="782.76,-160.99 786.54,-151.09 777.41,-156.47 782.76,-160.99"/>
<text text-anchor="middle" x="798.17" y="-224.2" font-family="Times,serif" font-size="10.00">4a. Fetches DVR Chunks</text>
</g>
<!-- M&#45;&gt;L -->
<g id="edge10" class="edge">
<title>M-&gt;L</title>
<path fill="none" stroke="black" d="M968.2,-146.9C967.5,-171.01 962.51,-214.75 937,-239.2 923.2,-252.42 879.9,-262.19 841.97,-268.49"/>
<polygon fill="black" stroke="black" points="841.74,-264.98 832.42,-270.01 842.85,-271.89 841.74,-264.98"/>
<text text-anchor="middle" x="979.42" y="-224.2" font-family="Times,serif" font-size="10.00">Returns JWT</text>
</g>
<!-- N&#45;&gt;H -->
<g id="edge12" class="edge">
<title>N-&gt;H</title>
<path fill="none" stroke="black" d="M1081.16,-147C1072.94,-165.95 1057.17,-194.57 1033,-207.2 993.56,-227.81 273.93,-222.11 232,-207.2 204.22,-197.32 178.56,-175.78 160.61,-157.77"/>
<polygon fill="black" stroke="black" points="163.44,-155.66 153.98,-150.89 158.4,-160.52 163.44,-155.66"/>
<text text-anchor="middle" x="669" y="-224.2" font-family="Times,serif" font-size="10.00">Authorizes &amp; Forwards</text>
</g>
<!-- O&#45;&gt;F -->
<g id="edge15" class="edge">
<title>O-&gt;F</title>
<path fill="none" stroke="black" d="M792.02,-149.63C769.11,-179.69 726.98,-233.87 717,-239.2 665.73,-266.59 506.69,-274.2 411.06,-276.27"/>
<polygon fill="black" stroke="black" points="411.17,-272.77 401.24,-276.46 411.31,-279.76 411.17,-272.77"/>
</g>
<!-- P -->
<g id="node18" class="node">
<title>P</title>
<path fill="none" stroke="black" d="M1281.7,-296C1281.7,-296 1200.3,-296 1200.3,-296 1194.3,-296 1188.3,-290 1188.3,-284 1188.3,-284 1188.3,-272 1188.3,-272 1188.3,-266 1194.3,-260 1200.3,-260 1200.3,-260 1281.7,-260 1281.7,-260 1287.7,-260 1293.7,-266 1293.7,-272 1293.7,-272 1293.7,-284 1293.7,-284 1293.7,-290 1287.7,-296 1281.7,-296"/>
<text text-anchor="middle" x="1241" y="-273.8" font-family="Times,serif" font-size="14.00">React Web App</text>
</g>
<!-- P&#45;&gt;N -->
<g id="edge21" class="edge">
<title>P-&gt;N</title>
<path fill="none" stroke="black" d="M1232.25,-259.57C1225.18,-246.5 1214.39,-228.62 1202,-215.2 1179.74,-191.08 1149.92,-169.02 1126.36,-153.36"/>
<polygon fill="black" stroke="black" points="1128.58,-150.63 1118.29,-148.09 1124.75,-156.49 1128.58,-150.63"/>
</g>
</g>
</svg>